<?xml version="1.0" encoding="utf-8"?>
<!-- Generator: Adobe Illustrator 16.0.0, SVG Export Plug-In . SVG Version: 6.00 Build 0)  -->
<!DOCTYPE svg PUBLIC "-//W3C//DTD SVG 1.1//EN" "http://www.w3.org/Graphics/SVG/1.1/DTD/svg11.dtd">
<svg version="1.1" id="Layer_1" xmlns="http://www.w3.org/2000/svg" xmlns:xlink="http://www.w3.org/1999/xlink" x="0px" y="0px"
	 width="250px" height="97.656px" viewBox="0 0 250 97.656" enable-background="new 0 0 250 97.656" xml:space="preserve">
<g>
	<path fill-rule="evenodd" clip-rule="evenodd" fill="#FEC905" d="M189.21,3.577c-0.145,0.007-0.625,0.021-1.103,0.06
		c-0.237,0.018-0.473,0.072-0.706,0.123c-4.437,0.975-7.467,3.61-8.791,7.933c-1.339,4.372-0.266,8.292,2.925,11.574
		c0.478,0.491,0.548,0.831,0.279,1.43c-6.875,15.282-13.739,30.568-20.574,45.867c-0.324,0.724-0.697,0.793-1.371,0.649
		c-1.381-0.294-2.797-0.337-4.16,0.019c-0.951,0.249-1.321-0.077-1.702-0.9c-3.981-8.619-7.991-17.225-12.031-25.817
		c-0.386-0.82-0.4-1.317,0.264-2.058c3.606-4.026,3.891-9.916,0.794-14.279c-3.095-4.36-8.812-6.019-13.753-3.992
		c-5.168,2.121-8.024,7.511-6.929,13.074c1.029,5.227,5.822,9.106,11.308,9.044c1.08-0.012,1.591,0.304,2.045,1.291
		c4.134,8.989,8.323,17.953,12.522,26.912c0.323,0.688,0.326,1.177-0.112,1.836c-1.247,1.873-1.812,3.965-1.8,6.231
		c0.029,4.938,3.083,9.229,7.774,10.848c4.582,1.581,9.708,0.085,12.73-3.716c3.054-3.84,3.378-9.257,0.699-13.32
		c-0.566-0.859-0.543-1.493-0.14-2.387c6.966-15.458,13.901-30.931,20.824-46.408c0.305-0.681,0.595-0.998,1.455-1.016
		c6.612-0.135,11.507-5.243,11.423-11.814C201,8.513,195.894,3.562,189.21,3.577z M133.543,39.335
		c-2.461-0.04-4.426-2.119-4.356-4.61c0.07-2.521,2.083-4.408,4.611-4.326c2.438,0.079,4.377,2.106,4.327,4.523
		C138.074,37.39,136.013,39.375,133.543,39.335z M157.64,86.986c-2.427-0.086-4.364-2.122-4.319-4.539
		c0.046-2.437,2.187-4.503,4.59-4.429c2.469,0.076,4.415,2.151,4.349,4.638C162.193,85.154,160.143,87.076,157.64,86.986z
		 M189.637,19.531c-2.469,0.022-4.51-2.005-4.506-4.474c0.003-2.438,1.962-4.445,4.375-4.483c2.451-0.039,4.538,1.976,4.577,4.418
		C194.122,17.456,192.111,19.509,189.637,19.531z"/>
	<path fill="#FFFFFF" d="M67.964,3.577H3.298v7.333H31.89c0.026,0.036,0.075,83.169,0.075,83.169h7.333V10.911h28.667V3.577z"/>
	<path fill="#FFFFFF" d="M114.644,34.859h-7.166c0,0-0.004,28.123-0.007,32.16c0,1.117-0.046,2.227-0.208,3.343
		c-1.356,9.377-10.151,17.723-21.521,16.514c-9.67-1.028-17.461-9.342-17.422-19.63c0.019-4.998,0-32.387,0-32.387h-7.009
		c0,0,0.021,29.737,0.017,31.625c-0.006,2.08,0.105,4.137,0.489,6.195c2.65,14.189,17.4,23.961,31.464,20.807
		c12.448-2.792,20.907-12.8,21.229-25.725c0.058-2.313,0.085-4.627,0.105-6.941h0.029V34.859z"/>
	<path fill-rule="evenodd" clip-rule="evenodd" fill="#FFFFFF" d="M246.702,34.859h-7.008c0,0-0.01,10.073-0.01,11.097
		c-12.379-15.249-33.22-13.818-44.235-2.79c-11.075,11.088-11.768,28.986-1.409,40.625c5.379,6.043,12.148,9.476,20.197,9.96
		c10.235,0.617,18.664-3.264,25.447-11.321c0,0.677,0.01,11.407,0.01,11.407h7.008V34.859z M216.188,86.731
		c-12.435-0.038-22.475-10.135-22.421-22.55c0.054-12.44,10.162-22.496,22.557-22.438c12.429,0.058,22.479,10.169,22.432,22.57
		C238.708,76.75,228.622,86.769,216.188,86.731z"/>
</g>
</svg>
